<svg width="18" height="15" viewBox="0 0 18 15" fill="none" xmlns="http://www.w3.org/2000/svg">
<path d="M1.42796 6.83986C6.66462 4.53611 13.4413 1.72737 14.3767 1.33862C16.8305 0.321117 17.5834 0.516117 17.208 2.76945C16.9384 4.38903 16.1605 9.75111 15.5405 13.0886C15.1725 15.0678 14.3471 15.3024 13.0492 14.4461C12.425 14.034 9.27462 11.9507 8.59087 11.4615C7.96671 11.0157 7.10587 10.4794 8.18546 9.42319C8.56962 9.04694 11.088 6.64236 13.05 4.7707C13.3071 4.52486 12.9842 4.12111 12.6875 4.3182C10.043 6.07195 6.37629 8.50611 5.90962 8.8232C5.20462 9.30194 4.52754 9.52153 3.31213 9.17236C2.39379 8.90861 1.49671 8.59403 1.14754 8.47403C-0.197039 8.01236 0.122128 7.41445 1.42796 6.83986Z" fill="white"/>
</svg>
